<svg id="Layer_1" data-name="Layer 1" xmlns="http://www.w3.org/2000/svg" xmlns:xlink="http://www.w3.org/1999/xlink" viewBox="0 0 566.93 566.93"><defs><style>.cls-1{fill:#281237;}.cls-2{fill:#fff;}.cls-3{fill:url(#linear-gradient);}</style><linearGradient id="linear-gradient" x1="213.01" y1="225.34" x2="353.97" y2="225.34" gradientUnits="userSpaceOnUse"><stop offset="0" stop-color="#0554a2"/><stop offset="1" stop-color="#b7a0cb"/></linearGradient></defs><title>AF_Logo_Yana_Gradient</title><rect class="cls-1" width="566.93" height="566.93"/><path class="cls-2" d="M274.32,382.18v37.36H260.55V411.1c-3.5,5.36-10.27,8.4-19.61,8.4-14.24,0-23.23-7.81-23.23-18.66,0-10.38,7-18.54,25.92-18.54h16.11v-.93c0-8.51-5.14-13.53-15.53-13.53-7,0-14.24,2.33-18.91,6.18l-5.72-10.61c6.65-5.13,16.34-7.7,26.38-7.7C263.93,355.71,274.32,364.22,274.32,382.18Zm-14.59,17V392H244.67c-9.92,0-12.61,3.73-12.61,8.28,0,5.25,4.44,8.63,11.91,8.63C251.09,408.88,257.28,405.62,259.73,399.21Z"/><path class="cls-2" d="M354.4,383.82v35.72H339.81V385.69c0-11.09-5.49-16.46-14.83-16.46-10.39,0-17.39,6.3-17.39,18.79v31.52H293V355.71h13.89v9.55c4.79-5.72,12.37-8.76,21.48-8.76C343.31,356.51,354.4,365,354.4,383.82Z"/><path class="cls-2" d="M425.15,382.16v37.38H411.37V411.1c-3.5,5.37-10.27,8.4-19.61,8.4-14.24,0-23.23-7.82-23.23-18.67,0-10.38,7-18.55,25.92-18.55h16.11v-.93c0-8.52-5.14-13.53-15.53-13.53-7,0-14.24,2.33-18.91,6.18l-5.72-10.62c6.65-5.13,16.34-7.7,26.38-7.7C414.76,355.68,425.15,364.2,425.15,382.16Zm-14.59,17V392H395.49c-9.92,0-12.61,3.73-12.61,8.28,0,5.25,4.44,8.63,11.91,8.63C401.92,408.88,408.1,405.61,410.55,399.2Z"/><path class="cls-2" d="M206.1,337.39l-20,33.16a4.8,4.8,0,0,1-8.24,0L161.61,343.4a12.33,12.33,0,0,0-10.58-6h-9.24L168.64,382a9.13,9.13,0,0,0,7.82,4.43h0l-20,33.07h15L221,337.39Z"/><path class="cls-3" d="M299.41,188.6l-40.29-36.09a17.64,17.64,0,0,0-12.43-5.13H213l49.34,44.13a15.46,15.46,0,0,0,9.31,4.71h19.86a3,3,0,0,1,2.2,5.18l-26.56,23.83a12.23,12.23,0,0,0-4.06,9.1v69l82.4-104.13a38.33,38.33,0,0,0,8.48-24V147.4l-46.33,41.5A5.91,5.91,0,0,1,299.41,188.6Z"/></svg>